HIERARCHY
ROOT hip
{
  OFFSET 0.0 0.0 0.0
  CHANNELS 6 Xposition Yposition Zposition Zrotation Yrotation Xrotation
  JOINT torso
  {
    OFFSET 0.0 0.0 0.0
    CHANNELS 3 Zrotation Xrotation Yrotation
    JOINT neck
    {
      OFFSET -31.42098999999993 328.8025209999999 74.3554680000002
      CHANNELS 3 Zrotation Xrotation Yrotation
      JOINT head
      {
        OFFSET 3.3519900000001144 303.81732099999994 206.53942900000015
        CHANNELS 3 Zrotation Xrotation Yrotation
        End Site
        {
          OFFSET 0.0 0.0 0.0
        }
      }
    }
    JOINT left_collar
    {
      OFFSET -31.42098999999993 328.8025209999999 74.3554680000002
      CHANNELS 3 Zrotation Xrotation Yrotation
      JOINT left_upper_arm
      {
        OFFSET -124.490479 -8.162841999999841 8.226441000000023
        CHANNELS 3 Zrotation Xrotation Yrotation
        JOINT left_forearm
        {
          OFFSET -253.595764 -1.5758060000000569 105.0729980000001
          CHANNELS 3 Zrotation Xrotation Yrotation
          JOINT left_hand
          {
            OFFSET -269.48803699999996 0.1478270000000066 -55.346191999999974
            CHANNELS 3 Zrotation Xrotation Yrotation
            End Site
            {
              OFFSET 0.0 0.0 0.0
            }
          }
        }
      }
    }
    JOINT right_collar
    {
      OFFSET -31.42098999999993 328.8025209999999 74.3554680000002
      CHANNELS 3 Zrotation Xrotation Yrotation
      JOINT right_upper_arm
      {
        OFFSET 162.02484099999998 0.46441600000002836 2.2303470000001653
        CHANNELS 3 Zrotation Xrotation Yrotation
        JOINT right_forearm
        {
          OFFSET 240.01246700000004 -25.835875999999985 121.34179699999959
          CHANNELS 3 Zrotation Xrotation Yrotation
          JOINT right_hand
          {
            OFFSET 252.48539699999992 18.910399999999868 -67.53466800000001
            CHANNELS 3 Zrotation Xrotation Yrotation
            End Site
            {
              OFFSET 0.0 0.0 0.0
            }
          }
        }
      }
    }
  }
}
MOTION
Frames: 8
Frame Time: 0.01
-279.0686039999997 253.40301499999973 1583.839478 0.10097102986377143 -13.527898889616559 7.776937015259998 2.4678798014869137 4.700138894135762 -0.007556484833079832 -0.19110963425885166 -2.122440859781014 0.15493045364470387 0.0 0.0 0.0 -1.1866861135977849 0.5067296686955904 -10.518702035306111 54.55612438254675 21.195130355707356 5.1871419385136335 28.106505411974986 -1.0929852951055703 -18.88682226848627 0.0 0.0 0.0 -4.9131185964319215 -0.21111630779217214 -6.960129951421732 -51.42789615086555 19.781739777338476 -13.160711828030733 -38.23222245770955 -1.938988385059234 30.514620067058132 0.0 0.0 0.0
-279.17776499999974 253.1200409999997 1584.135498 -0.055756481903916355 -13.682095610511228 7.917856305225592 2.566663427928107 4.742279751406681 -0.021026908392760786 -0.17860295088946906 -2.0485224785377922 0.14544835667069042 0.0 0.0 0.0 -1.189166713952616 0.5103956261758029 -10.590883117760491 54.67592255331073 21.23439834695269 5.211879016913831 27.957507413755398 -1.0460058693033054 -19.051704080451437 0.0 0.0 0.0 -4.857276909914501 -0.212513071656294 -7.061714769105433 -51.51211897057148 19.777924832722192 -13.22822632256785 -38.25387269487603 -1.8674661423506902 30.778787227739503 0.0 0.0 0.0
-279.33358799999974 252.85824599999972 1584.449341 -0.05984624339299967 -13.704651743411434 7.8400958865241 2.509218626114984 4.664982361559001 -0.01948297007196558 -0.20927925597735292 -1.9872425542545666 0.1658756580627054 0.0 0.0 0.0 -1.2005427999652412 0.4988449470165719 -10.41758564037124 54.6562756858221 21.299684908069068 5.0825712759454165 28.02550078152472 -1.0266477638814495 -19.13986857029053 0.0 0.0 0.0 -4.817421707714189 -0.20643441580846364 -6.955642713618415 -51.47056554201134 19.722215545857495 -13.281915218968365 -38.340083146094955 -1.7966264954143747 31.03724861881633 0.0 0.0 0.0
-279.49017299999974 252.5717009999997 1584.759888 -0.0849366439102619 -13.78562003823657 7.913455038982365 2.5390264812148953 4.481639002346874 -0.04692472534446234 -0.3198768081298557 -1.5965259073499012 0.23728922346885029 0.0 0.0 0.0 -0.8327840413228732 0.5378485956385628 -10.093492783107088 53.947483746028226 21.43890847132955 4.277635769362388 28.215427092746417 -1.0209058209052253 -19.191307553307084 0.0 0.0 0.0 -5.219808496330442 -0.23445378985625054 -7.167928579491719 -51.181587248787864 19.832540571319175 -12.902327579214118 -38.358758471643924 -1.7613813383335857 31.166401237702253 0.0 0.0 0.0
-279.6031489999997 252.2457579999997 1585.088745 -0.03075331044233328 -13.904066929543285 8.094489553935388 2.3981664927432615 4.580567336550824 -0.008608175497639437 -0.15070444105073805 -1.7719775231254815 0.12304154281595947 0.0 0.0 0.0 -1.31246920285415 0.48151005259594165 -10.424694316111838 54.396694143102735 21.45342919066209 4.609712152262726 28.317360405349593 -0.9953475167628735 -19.307824283790968 0.0 0.0 0.0 -4.827210028272518 -0.21726737782046357 -7.219100748922483 -51.472038880026055 19.694757101129213 -13.324476201249276 -38.55706119326217 -1.7005246979085864 31.37994866093599 0.0 0.0 0.0
-279.7382809999997 252.00414999999973 1585.388672 -0.10531641010231811 -13.926043428906043 8.095294551120391 2.4106820018392003 4.513270559182876 -0.018909687160980498 -0.16872937393808846 -1.7246726819140359 0.13489585705823495 0.0 0.0 0.0 -1.2778607750459952 0.4816641008857673 -10.32856755964578 54.297745403650616 21.496264353626152 4.456203193885686 28.403469719656034 -0.9659006071845929 -19.436664693642374 0.0 0.0 0.0 -4.815460499656796 -0.21375377883987193 -7.144394728470871 -51.4084147226043 19.64614778115235 -13.351444045190647 -38.608093271567924 -1.6422881177566158 31.590040855641128 0.0 0.0 0.0
-279.8392939999997 251.7924649999997 1585.736816 -0.15411734674886834 -13.965572648189328 8.151095065051209 2.403579753564476 4.501425314452559 -0.018965507707785063 -0.14529019840182883 -1.7479473915712465 0.11904038969256865 0.0 0.0 0.0 -1.211450172587128 0.5023339007448111 -10.510657146574058 54.313749211222614 21.43006579212599 4.584979368321712 28.283880313340063 -0.9048564870065178 -19.662594905472275 0.0 0.0 0.0 -4.853363463071881 -0.21052371455241595 -7.0162170927823215 -51.328864537639106 19.54237476177561 -13.450464224823385 -38.55541154970607 -1.5784306570303772 31.827074690415976 0.0 0.0 0.0
-279.9132389999997 251.6132049999997 1586.095459 -0.3917620521784661 -14.166282710386675 8.344646244975934 2.5957019640155994 4.583929573843776 -0.04541222330699679 -0.13090262777962816 -1.7084656298967376 0.10869170504633029 0.0 0.0 0.0 -1.2485412855270002 0.5045159538063249 -10.655767721694293 54.261424796491305 21.44016482415276 4.525762529441024 28.32706549068599 -0.864869142198644 -19.826908422423536 0.0 0.0 0.0 -4.871063118740888 -0.21504682680632417 -7.108813638868469 -51.3035686910144 19.50904201999126 -13.482539626634114 -38.6443419942171 -1.5195262348728344 32.03589185236101 0.0 0.0 0.0
